<?xml version="1.0" encoding="UTF-8" standalone="no"?>
<!-- Created with Inkscape (http://www.inkscape.org/) -->

<svg
   xmlns:dc="http://purl.org/dc/elements/1.1/"
   xmlns:cc="http://creativecommons.org/ns#"
   xmlns:rdf="http://www.w3.org/1999/02/22-rdf-syntax-ns#"
   xmlns:svg="http://www.w3.org/2000/svg"
   xmlns="http://www.w3.org/2000/svg"
   xmlns:sodipodi="http://sodipodi.sourceforge.net/DTD/sodipodi-0.dtd"
   xmlns:inkscape="http://www.inkscape.org/namespaces/inkscape"
   width="1000"
   height="200"
   id="svg2"
   version="1.1"
   inkscape:version="0.48.3.1 r9886"
   sodipodi:docname="legende.svg"
   inkscape:export-filename="/home/tomi/Arbeitsfläche/legende-export.png"
   inkscape:export-xdpi="31.799999"
   inkscape:export-ydpi="31.799999">
  <defs
     id="defs4">
    <inkscape:path-effect
       effect="spiro"
       id="path-effect3255"
       is_visible="true" />
    <inkscape:path-effect
       effect="spiro"
       id="path-effect3080"
       is_visible="true" />
    <inkscape:path-effect
       effect="spiro"
       id="path-effect3076"
       is_visible="true" />
    <inkscape:path-effect
       effect="spiro"
       id="path-effect3072"
       is_visible="true" />
    <inkscape:path-effect
       effect="spiro"
       id="path-effect3068"
       is_visible="true" />
    <inkscape:path-effect
       effect="spiro"
       id="path-effect3034"
       is_visible="true" />
    <inkscape:path-effect
       effect="spiro"
       id="path-effect3030"
       is_visible="true" />
    <inkscape:path-effect
       effect="spiro"
       id="path-effect3026"
       is_visible="true" />
  </defs>
  <sodipodi:namedview
     id="base"
     pagecolor="#ffffff"
     bordercolor="#666666"
     borderopacity="1.0"
     inkscape:pageopacity="0.0"
     inkscape:pageshadow="2"
     inkscape:zoom="0.98994949"
     inkscape:cx="565.19986"
     inkscape:cy="-74.850365"
     inkscape:document-units="px"
     inkscape:current-layer="layer1"
     showgrid="false"
     inkscape:window-width="1294"
     inkscape:window-height="847"
     inkscape:window-x="302"
     inkscape:window-y="24"
     inkscape:window-maximized="0"
     showguides="true"
     inkscape:guide-bbox="true" />
  <metadata
     id="metadata7">
    <rdf:RDF>
      <cc:Work
         rdf:about="">
        <dc:format>image/svg+xml</dc:format>
        <dc:type
           rdf:resource="http://purl.org/dc/dcmitype/StillImage" />
        <dc:title />
      </cc:Work>
    </rdf:RDF>
  </metadata>
  <g
     inkscape:label="Ebene 1"
     inkscape:groupmode="layer"
     id="layer1"
     transform="translate(0,-852.36218)">
    <path
       style="fill:#000000"
       d=""
       id="path2998"
       inkscape:connector-curvature="0" />
    <path
       style="fill:#0066ff;stroke:none"
       d="m 313.07457,931.06871 c -0.87144,2.93298 0.51963,6.11527 1.43442,8.95612 5.50232,13.53114 11.97635,25.85943 17.81759,39.25449 5.75477,12.49246 11.3723,25.84488 16.54833,38.60218 1.35607,1.8388 3.06043,-0.4095 3.45559,-1.8254 10.76138,-21.133 21.51795,-42.28707 31.82022,-63.64537 2.60759,-6.50081 5.49001,-13.23548 5.35817,-20.3777 -0.90224,-2.49466 -4.32365,-0.87853 -6.35245,-1.33799 -6.08864,0.0966 -12.25208,-0.19292 -18.29414,0.14406 -1.86712,1.13181 -0.65329,3.98337 -1.4985,5.83472 -1.40594,6.72021 -8.84573,11.46641 -15.45321,9.378 -5.81552,-1.57419 -9.39415,-7.44683 -9.73333,-13.24873 -0.0573,-3.26978 -4.02199,-1.78951 -6.10561,-2.10805 -6.13263,0.0977 -12.34077,-0.19443 -18.42675,0.14406 l -0.35781,0.14405 z"
       id="path3038"
       inkscape:connector-curvature="0"
       sodipodi:nodetypes="cccccccccccccccc" />
    <path
       style="fill:#c83737;stroke:none"
       d="m 347.13913,894.07503 c -16.99641,0.44424 -32.89345,14.30229 -34.52548,31.42276 0.17984,1.91689 -1.43215,5.10668 0.99129,5.89638 7.96089,-0.0973 15.99688,0.19302 23.91131,-0.14406 1.69858,-0.97124 0.91367,-3.60106 2.1253,-5.11148 1.90183,-4.79661 7.15563,-8.00453 12.30712,-7.26856 6.14594,0.0124 11.05377,5.67569 11.87318,11.52362 1.46891,1.99359 4.54463,0.57118 6.70201,1.00048 5.99231,-0.0961 12.05911,0.19229 18.00486,-0.14406 1.93842,-1.22044 0.56296,-4.09974 0.2931,-5.95526 -3.74638,-15.38457 -16.89291,-28.57662 -32.72387,-30.79532 -2.96642,-0.38561 -5.96833,-0.50204 -8.95882,-0.4245 z"
       id="path3040"
       inkscape:connector-curvature="0" />
    <flowRoot
       xml:space="preserve"
       id="flowRoot3042"
       style="font-size:40px;font-style:normal;font-weight:normal;text-align:end;line-height:125%;letter-spacing:0px;word-spacing:0px;text-anchor:end;fill:#000000;fill-opacity:1;stroke:none;font-family:Sans"
       transform="translate(-47.447427,498.46268)"><flowRegion
         id="flowRegion3044"><rect
           id="rect3046"
           width="414.16254"
           height="94.954346"
           x="-89.90358"
           y="373.53967"
           style="text-align:end;text-anchor:end" /></flowRegion><flowPara
         id="flowPara3048"
         style="font-size:32px;font-style:normal;font-variant:normal;font-weight:normal;font-stretch:normal;text-align:end;text-anchor:end;font-family:Ubuntu;-inkscape-font-specification:Ubuntu">Drittmittel aus</flowPara><flowPara
         style="font-size:32px;font-style:normal;font-variant:normal;font-weight:normal;font-stretch:normal;text-align:end;text-anchor:end;font-family:Ubuntu;-inkscape-font-specification:Ubuntu"
         id="flowPara3054">gewerblicher Wirtschaft</flowPara></flowRoot>    <text
       xml:space="preserve"
       style="font-size:40px;font-style:normal;font-weight:normal;line-height:125%;letter-spacing:0px;word-spacing:0px;fill:#000000;fill-opacity:1;stroke:none;font-family:Sans"
       x="409.80502"
       y="966.61011"
       id="text3050"
       sodipodi:linespacing="125%"><tspan
         sodipodi:role="line"
         id="tspan3052"
         x="409.80502"
         y="966.61011"
         style="font-size:32px;font-style:normal;font-variant:normal;font-weight:normal;font-stretch:normal;font-family:Ubuntu;-inkscape-font-specification:Ubuntu">sonstige</tspan><tspan
         sodipodi:role="line"
         x="409.80502"
         y="1006.6101"
         style="font-size:32px;font-style:normal;font-variant:normal;font-weight:normal;font-stretch:normal;font-family:Ubuntu;-inkscape-font-specification:Ubuntu"
         id="tspan3056">Drittmittel</tspan></text>
    <flowRoot
       xml:space="preserve"
       id="flowRoot3058"
       style="font-size:40px;font-style:normal;font-weight:normal;line-height:125%;letter-spacing:0px;word-spacing:0px;fill:#000000;fill-opacity:1;stroke:none;font-family:Sans"
       transform="translate(-17.142857,468.1581)"><flowRegion
         id="flowRegion3060"><rect
           id="rect3062"
           width="205.06097"
           height="413.1524"
           x="304.05591"
           y="290.70715" /></flowRegion><flowPara
         id="flowPara3064" /></flowRoot>    <path
       style="fill:none;stroke:#000000;stroke-width:1px;stroke-linecap:butt;stroke-linejoin:miter;stroke-opacity:1"
       d="m 327.31917,914.42876 c 0,0 -22.01285,4.25551 -30.30457,11.11167 -9.07868,7.50688 -8.18161,24.07943 -18.18276,30.30458 -17.21128,10.71305 -60.60914,5.05076 -60.60914,5.05076"
       id="path3084"
       inkscape:connector-curvature="0"
       sodipodi:nodetypes="caac" />
    <path
       style="fill:none;stroke:#000000;stroke-width:1px;stroke-linecap:butt;stroke-linejoin:miter;stroke-opacity:1"
       d="m 355.60344,972.27 c 0,0 22.818,0.56583 31.31473,7.07106 10.30221,7.88754 7.14222,27.60114 18.18274,34.41694 13.3914,8.2672 47.20234,1.0102 47.20234,1.0102"
       id="path3084-2"
       inkscape:connector-curvature="0"
       sodipodi:nodetypes="caac" />
    <path
       style="fill:#0066ff;stroke:none"
       d="m 593.37373,922.95891 c -0.95142,3.20217 0.56732,6.67653 1.56607,9.77811 6.00732,14.77303 13.07554,28.23281 19.45288,42.85726 6.28295,13.63902 12.41605,28.21692 18.06714,42.14512 1.48053,2.0076 3.34131,-0.4471 3.77274,-1.9929 11.74906,-23.07265 23.49286,-46.16824 34.74067,-69.4868 2.84692,-7.09745 5.99389,-14.45023 5.84995,-22.24796 -0.98505,-2.72362 -4.72048,-0.95916 -6.93548,-1.46079 -6.64745,0.10546 -13.37657,-0.21063 -19.97317,0.15728 -2.03849,1.23569 -0.71325,4.34896 -1.63604,6.37023 -1.53497,7.33699 -9.65758,12.51879 -16.8715,10.23871 -6.34927,-1.71867 -10.25634,-8.1303 -10.62665,-14.4647 -0.0626,-3.56988 -4.39113,-1.95375 -6.66598,-2.30152 -6.69549,0.10667 -13.47341,-0.21228 -20.11796,0.15728 l -0.39065,0.15727 z"
       id="path3038-6"
       inkscape:connector-curvature="0"
       sodipodi:nodetypes="cccccccccccccccc" />
    <path
       style="fill:#c83737;stroke:none"
       d="m 630.56473,882.56996 c -18.55634,0.48501 -35.91241,15.61495 -37.69423,34.30674 0.19635,2.09282 -1.56359,5.57537 1.08228,6.43754 8.69153,-0.10623 17.46507,0.21074 26.10588,-0.15728 1.85448,-1.06038 0.99753,-3.93156 2.32036,-5.58061 2.07638,-5.23684 7.81237,-8.73918 13.43667,-7.93567 6.71001,0.0135 12.06828,6.19661 12.96289,12.58126 1.60373,2.17656 4.96174,0.6236 7.31712,1.0923 6.54229,-0.10492 13.1659,0.20994 19.65735,-0.15728 2.11632,-1.33245 0.61463,-4.47601 0.32,-6.50183 -4.09022,-16.79656 -18.44334,-31.19938 -35.72726,-33.62171 -3.23868,-0.421 -6.51611,-0.54812 -9.78106,-0.46346 z"
       id="path3040-5"
       inkscape:connector-curvature="0" />
    <path
       style="fill:#0066ff;stroke:none"
       d="m 942.42702,978.75275 c -0.38156,1.2842 0.22752,2.67756 0.62806,3.92142 2.40918,5.9246 5.24383,11.32252 7.80141,17.18753 2.51971,5.4698 4.97934,11.3162 7.24566,16.9019 0.59375,0.8051 1.33996,-0.1793 1.51306,-0.7992 4.71186,-9.2531 9.42156,-18.51538 13.93236,-27.86708 1.1417,-2.84637 2.4038,-5.79513 2.3461,-8.92234 -0.3951,-1.09229 -1.8931,-0.38467 -2.7814,-0.58584 -2.6659,0.0423 -5.3646,-0.0845 -8.0101,0.0631 -0.8174,0.49556 -0.286,1.74411 -0.656,2.55472 -0.6156,2.94243 -3.87316,5.02055 -6.76625,4.10614 -2.54631,-0.68925 -4.11321,-3.26058 -4.26172,-5.80093 -0.0251,-1.43167 -1.76102,-0.78354 -2.67333,-0.92301 -2.68517,0.0428 -5.40339,-0.0851 -8.06813,0.0631 l -0.15667,0.0631 z"
       id="path3038-3"
       inkscape:connector-curvature="0"
       sodipodi:nodetypes="cccccccccccccccc" />
    <path
       style="fill:#c83737;stroke:none"
       d="m 957.34214,962.55512 c -7.44185,0.19451 -14.40235,6.26224 -15.11693,13.75841 0.0787,0.83931 -0.62707,2.23595 0.43403,2.58172 3.48567,-0.0426 7.00421,0.0845 10.46954,-0.0631 0.74372,-0.42526 0.40004,-1.57672 0.93056,-2.23806 0.83271,-2.10019 3.13308,-3.50477 5.38867,-3.18253 2.69096,0.005 4.83996,2.4851 5.19866,5.0456 0.6431,0.87289 1.9898,0.25009 2.9344,0.43806 2.6237,-0.0421 5.2801,0.0842 7.8834,-0.0631 0.8487,-0.53437 0.2465,-1.79507 0.1283,-2.60751 -1.6403,-6.73611 -7.3965,-12.51223 -14.32806,-13.48368 -1.2988,-0.16884 -2.61319,-0.21982 -3.92257,-0.18587 z"
       id="path3040-6"
       inkscape:connector-curvature="0" />
    <flowRoot
       xml:space="preserve"
       id="flowRoot3042-7"
       style="font-size:40px;font-style:normal;font-weight:normal;text-align:end;line-height:125%;letter-spacing:0px;word-spacing:0px;text-anchor:end;fill:#000000;fill-opacity:1;stroke:none;font-family:Sans"
       transform="translate(811.64835,571.86574)"><flowRegion
         id="flowRegion3044-8"><rect
           id="rect3046-5"
           width="296.98483"
           height="89.90358"
           x="-89.90358"
           y="373.53967"
           style="text-align:end;text-anchor:end" /></flowRegion><flowPara
         style="font-size:32px;font-style:normal;font-variant:normal;font-weight:normal;font-stretch:normal;text-align:end;text-anchor:end;font-family:Ubuntu;-inkscape-font-specification:Ubuntu"
         id="flowPara3239">hohe Einnahmen                </flowPara><flowPara
         style="font-size:24px;font-style:normal;font-variant:normal;font-weight:normal;font-stretch:normal;text-align:end;text-anchor:end;font-family:Ubuntu;-inkscape-font-specification:Ubuntu"
         id="flowPara3243" /></flowRoot>    <text
       xml:space="preserve"
       style="font-size:40px;font-style:normal;font-weight:normal;line-height:125%;letter-spacing:0px;word-spacing:0px;fill:#000000;fill-opacity:1;stroke:none;font-family:Sans"
       x="659.07135"
       y="1014.5906"
       id="text3245"
       sodipodi:linespacing="125%"><tspan
         sodipodi:role="line"
         id="tspan3247"
         x="659.07135"
         y="1014.5906"
         style="font-size:32px;font-style:normal;font-variant:normal;font-weight:normal;font-stretch:normal;font-family:Ubuntu;-inkscape-font-specification:Ubuntu">niedrige Einnahmen</tspan></text>
    <path
       style="fill:none;stroke:#000000;stroke-width:1px;stroke-linecap:butt;stroke-linejoin:miter;stroke-opacity:1"
       d="m 955.64255,1020.6218 c -8.68511,3.4758 0.96794,1.5809 -23.17408,5.8824 -8.57774,1.5283 -25.69943,-4.7707 -25.69943,-4.7707"
       id="path3249"
       inkscape:connector-curvature="0"
       sodipodi:nodetypes="csc" />
    <path
       style="fill:none;stroke:#000000;stroke-width:1.11315691px;stroke-linecap:butt;stroke-linejoin:miter;stroke-opacity:1"
       d="m 700.15589,981.8053 c 0,0 -21.89899,6.98979 -33.00073,6.13268 -6.74088,-0.52042 -19.50978,-6.77695 -19.50978,-6.77695"
       id="path3251"
       inkscape:connector-curvature="0"
       sodipodi:nodetypes="cac" />
    <path
       style="fill:#e5e588;fill-opacity:1;stroke:#c83737;stroke-width:1.45;stroke-linecap:butt;stroke-linejoin:miter;stroke-opacity:1;stroke-miterlimit:4;stroke-dasharray:5.8,11.6;stroke-dashoffset:0"
       d="m 640.5658,883.81144 321.92049,79.9292"
       id="path3253"
       inkscape:path-effect="#path-effect3255"
       inkscape:original-d="m 640.5658,883.81144 321.92049,79.9292"
       inkscape:connector-curvature="0" />
  </g>
</svg>
